<svg xmlns="http://www.w3.org/2000/svg" xmlns:xlink="http://www.w3.org/1999/xlink" width="519.71" height="130.303" viewBox="0 0 519.71 130.303"><defs><clipPath id="a"><rect width="519.71" height="130.303" fill="#fff"/></clipPath></defs><g clip-path="url(#a)"><path d="M639.035,95.358a24.17,24.17,0,0,0,2.333-3.275l25.746-50.57,11.759,49.749s1.384,3.63,2.064,4.1H674.8c-.433-1.426-6.635-23.46-6.635-23.46H655.015s-10.384,22.831-10.673,23.46Zm17.275-26.1h11.1l-4.143-15.424Z" transform="translate(-346.479 -22.508)" fill="#fff"/><path d="M740.948,84.4l-.065-36.509H732.8c1.08.57,1.653,2.658,1.8,5.158.137,1.061.567,31.566.707,33.562,1.226,18.289,27.566,21.713,29.156-2.04.128-2.181,1.175-24.31,1.274-25.813.286-4.366.829-9.679,2.279-10.854l-5.865-.012L762.124,83.4c-.03,19.281-21.1,18.708-21.176,1" transform="translate(-397.316 -25.964)" fill="#fff"/><path d="M820.349,47.134c.812,1.02,1.53,2.521,1.572,5.434L820.7,93.822a10.347,10.347,0,0,1-1.154,4.092h6.935l2.431-49.2c17.227-4.491,24.932,22.255,2.1,26.435,1.653,1.916,24.046,25.545,25.037,26.634,3.078,3.353,11.437,6.357,13.423,7.141-4.051-2.506-10.276-9.137-11.04-10.4,1.632.036,24.965,0,24.965,0l2.151-4.82s-7.565,2.724-19.7,2.724c-1.008,0-2.369.1-2.369-1.5V74.672h18.608V71.607H863.478l.5-22.261c12.463.081,18.1,2.869,18.1,2.869V46.988h-26.6s1.578,1.538,1.667,5.227c0,0,.552,45.568.552,45.7-.731-.99-19.372-23.849-19.372-23.849,15.4-2.931,26.439-33.432-17.984-26.931" transform="translate(-444.352 -25.064)" fill="#fff"/><path d="M428.815,98.677s6.152-.018,6.25,0a5.57,5.57,0,0,1-1.217-2.968l.537-48.238h-8.324a7.082,7.082,0,0,1,1.931,4.494s.822,46.695.822,46.713" transform="translate(-231.007 -25.738)" fill="#fff"/><path d="M457.9,24.527l3.709,4.767L460.22,71.02a12.323,12.323,0,0,1-1.262,4.713c-.069-.018,4.9,0,4.9,0l-.01-43.342,37.079,47.482L503.147,30.8c.08-1.069-.5-3.573,2.278-3.638h8.5l.355,44.365a11.923,11.923,0,0,1-.7,4.2c.036-.018,6.807-.018,6.84,0a13.7,13.7,0,0,1-.555-3.973l1.566-44.576c5.4,0,11.291.1,16.1,1.873L524.859,87.943a15.9,15.9,0,0,1-2,5h44.852l3.723-6.491c-7.992,2.724-28,4.487-37.711,4.358-3.159-.048-3.294-1.7-2.8-3.589L550.5,5.154h-9.215c.919,1.187.919,2.4.564,4.413l-3.281,14.96H499.21V69.234L466.792,24.527Z" transform="translate(-248.268 -2.794)" fill="#fff"/><path d="M1042.5,48.516h-36.963v44.7L973.1,48.5h-8.88c.45.573,3.311,4.222,3.708,4.785,0,1.289-1.387,41.716-1.387,41.716a12.417,12.417,0,0,1-.779,4.719h4.406l-.018-43.34s36.455,46.547,37.085,47.481c.075-1.781,1.85-49.13,1.85-49.13,0-1.059,0-4.042,2.9-4.043h9.232l.31,45.546a12.06,12.06,0,0,1-.692,3.472c0,.009,6.551.015,6.551.015a9.065,9.065,0,0,1-.433-3.457s1.626-45.576,1.658-45.576c5.507,0,8.961,0,13.892,1.481Z" transform="translate(-522.788 -26.295)" fill="#fff"/><path d="M168.7,49.7l-13.351,28.4C146.329,96.562,124.917,95.4,110.5,82.306l2.287-7.276C131.932,106,164.009,81.659,146.994,60.1L122.061,30.6c-16.981-19.6-27.217,1.157-17.774,8.719l14,10.569c10.287,7.291,6.855,22.835-6.462,24.213-6.151.635-13.189-2.067-17.388-4.961l-1.15,3.92H66a8.934,8.934,0,0,0,1-3.774l-.061-45.234c.019-.826-.515-.883-.824-.2L42.076,75.3,31.463,28.671c-.353-1.138-1.072-.081-1.072-.081-1.787,2.473-9.63,13.47-11.037,15.362A14.519,14.519,0,0,0,17.1,48.559c-.4,1.157-9.006,35.757-9.386,37.106-.357,1.238.121,3.723.78,4.361H0A8.586,8.586,0,0,0,2.008,86.9L8.773,51.957A32.859,32.859,0,0,0,8.357,38.1C4.169,13.674,3.257,3.117,1.075,1.448H8.147C8.357,2.746,16.5,41.239,17,43.1c-.5.781,27.079-41.309,27.079-41.309H51.21S47.643,5.165,47,6.027c-.546.737-9.143,12.472-10.216,13.925L45,64.174,62.788,21.591H92.36v4.834c-3.252-1.625-14.482-3.581-18.929-3.007l-.437,21.467c.027,1.172.009,1.265,1.073,1.265L92.4,46.139v2.955H72.787l-.608,20.756c0,1.423,1.028,1.572,1.927,1.611,7.662.29,14.9-.707,20.232-3.043l1.265-4.65c5.89,7.228,10.67,9.79,16.893,7.974,5.981-1.739,11.705-9.912.707-17.584l-10.7-7.552c-14.82-11.2-2.3-35.393,18.7-23.294-.076-21.062,26.767-31.586,45.713-15.5l-1.859,6.929c-16.734-27.171-47.379-4.823-33.217,14.569l20.07,26.216c4.506,5.664,5.274,9.741,5.274,9.741L180.8,20.083,192.558,69.19a9.7,9.7,0,0,0,1.9,3.749c-.012-.018-6.744-.018-6.754,0,.009-.018-6.254-23.214-6.254-23.214Zm1.321-3.183h10.57L176.81,31.938Z" transform="translate(0 0)" fill="#fff"/><path d="M463.786,265.244h-4.071V249.651h3.864c2.931,0,4.92,1.441,4.92,3.979a3.832,3.832,0,0,1-2.333,3.634v.024a3.786,3.786,0,0,1,3.222,3.749c0,2.906-2.052,4.206-5.6,4.206m-.319-14.313h-2.33v5.853h3.4c1.833-.591,2.492-1.552,2.492-2.989,0-1.742-1.372-2.864-3.566-2.864m.641,7.088h-2.971v5.942h2.649c2.65,0,4.14-.955,4.14-3.082,0-1.853-1.535-2.861-3.818-2.861" transform="translate(-249.253 -135.358)" fill="#fff"/><path d="M499.622,265.244V249.652h7.632V251h-6.215v5.537h5.99v1.348h-5.99V263.9h6.812v1.345Z" transform="translate(-270.89 -135.359)" fill="#fff"/><path d="M544.686,264.756l-2.2-5.187h-6.536l-2.2,5.187h-1.526l6.973-16h.134l6.928,16Zm-5.444-12.872H539.2l-2.679,6.336h5.4Z" transform="translate(-288.567 -134.871)" fill="#fff"/><path d="M577.662,260.695V249.652h1.411v10.8c0,2.625,1.468,3.86,3.774,3.86s3.8-1.235,3.8-3.86v-10.8h1.42v11.043c0,3.249-2.1,4.967-5.193,4.967-3.105,0-5.209-1.718-5.209-4.967" transform="translate(-313.203 -135.359)" fill="#fff"/><path d="M621.133,265.3V251.055h-4.525V249.7h10.443v1.351h-4.525V265.3Z" transform="translate(-334.319 -135.387)" fill="#fff"/><path d="M656.054,262.054V246.462h3.126l1.811-2.694h1.518l-2.115,2.694h3.3v1.351h-6.217v5.537h5.987V254.7h-5.987v6.011h6.807v1.345Z" transform="translate(-355.707 -132.169)" fill="#fff"/></g></svg>